<svg width="64" height="64" viewBox="0 0 64 64" fill="none" xmlns="http://www.w3.org/2000/svg">
<mask id="mask0_420_18331" style="mask-type:alpha" maskUnits="userSpaceOnUse" x="0" y="0" width="64" height="64">
<circle cx="32" cy="32" r="32" fill="#E6E8EC"/>
</mask>
<g mask="url(#mask0_420_18331)">
<path d="M64 55.9837V64.0023H0V56.013C3.72253 51.0382 8.55442 47.0006 14.1114 44.2211C19.6685 41.4417 25.7973 39.9971 32.0107 40.0023C45.088 40.0023 56.704 46.2797 64 55.9837ZM42.672 23.9997C42.672 26.8286 41.5482 29.5418 39.5478 31.5421C37.5474 33.5425 34.8343 34.6663 32.0053 34.6663C29.1764 34.6663 26.4632 33.5425 24.4629 31.5421C22.4625 29.5418 21.3387 26.8286 21.3387 23.9997C21.3387 21.1707 22.4625 18.4576 24.4629 16.4572C26.4632 14.4568 29.1764 13.333 32.0053 13.333C34.8343 13.333 37.5474 14.4568 39.5478 16.4572C41.5482 18.4576 42.672 21.1707 42.672 23.9997Z" fill="#B1B5C4"/>
</g>
</svg>
