<svg width="16" height="16" viewBox="0 0 16 16" fill="none" xmlns="http://www.w3.org/2000/svg">
<path fill-rule="evenodd" clip-rule="evenodd" d="M0.799988 6.3999C0.799988 5.51625 1.51633 4.7999 2.39999 4.7999H3.14369C3.67866 4.7999 4.17823 4.53254 4.47497 4.08742L5.125 3.11238C5.42175 2.66726 5.92132 2.3999 6.45628 2.3999H9.54369C10.0787 2.3999 10.5782 2.66726 10.875 3.11238L11.525 4.08742C11.8217 4.53254 12.3213 4.7999 12.8563 4.7999H13.6C14.4836 4.7999 15.2 5.51625 15.2 6.3999V11.9999C15.2 12.8836 14.4836 13.5999 13.6 13.5999H2.39999C1.51633 13.5999 0.799988 12.8836 0.799988 11.9999V6.3999ZM11.6 8.7999C11.6 10.7881 9.98821 12.3999 7.99999 12.3999C6.01176 12.3999 4.39999 10.7881 4.39999 8.7999C4.39999 6.81168 6.01176 5.1999 7.99999 5.1999C9.98821 5.1999 11.6 6.81168 11.6 8.7999ZM7.99999 11.1999C9.32547 11.1999 10.4 10.1254 10.4 8.7999C10.4 7.47442 9.32547 6.3999 7.99999 6.3999C6.6745 6.3999 5.59999 7.47442 5.59999 8.7999C5.59999 10.1254 6.6745 11.1999 7.99999 11.1999Z" fill="#FCFCFD"/>
</svg>
