<svg width="16" height="16" viewBox="0 0 16 16" fill="none" xmlns="http://www.w3.org/2000/svg">
<g clip-path="url(#clip0_2538_22397)">
<path d="M13.3327 14.6665H2.66602V13.3332C2.66602 12.4491 3.01721 11.6013 3.64233 10.9761C4.26745 10.351 5.11529 9.99984 5.99935 9.99984H9.99935C10.8834 9.99984 11.7312 10.351 12.3564 10.9761C12.9815 11.6013 13.3327 12.4491 13.3327 13.3332V14.6665ZM7.99935 8.6665C7.47406 8.6665 6.95392 8.56304 6.46862 8.36202C5.98331 8.161 5.54236 7.86637 5.17092 7.49493C4.79949 7.1235 4.50485 6.68254 4.30383 6.19724C4.10281 5.71194 3.99935 5.19179 3.99935 4.6665C3.99935 4.14122 4.10281 3.62107 4.30383 3.13577C4.50485 2.65047 4.79949 2.20951 5.17092 1.83808C5.54236 1.46664 5.98331 1.172 6.46862 0.970986C6.95392 0.769967 7.47406 0.666504 7.99935 0.666504C9.06021 0.666504 10.0776 1.08793 10.8278 1.83808C11.5779 2.58822 11.9993 3.60564 11.9993 4.6665C11.9993 5.72737 11.5779 6.74479 10.8278 7.49493C10.0776 8.24508 9.06021 8.6665 7.99935 8.6665Z" fill="#9CA3AF"/>
</g>
<defs>
<clipPath id="clip0_2538_22397">
<rect width="16" height="16" fill="white"/>
</clipPath>
</defs>
</svg>
