<svg width="24" height="24" viewBox="0 0 25 24" fill="none" xmlns="http://www.w3.org/2000/svg">
<path d="M18.5 10.5V9.75C18.0858 9.75 17.75 10.0858 17.75 10.5H18.5ZM18.5075 10.5H19.2575C19.2575 10.0858 18.9217 9.75 18.5075 9.75V10.5ZM18.5075 10.5075V11.2575C18.9217 11.2575 19.2575 10.9217 19.2575 10.5075H18.5075ZM18.5 10.5075H17.75C17.75 10.9217 18.0858 11.2575 18.5 11.2575V10.5075ZM6.5 10.5V9.75C6.08579 9.75 5.75 10.0858 5.75 10.5H6.5ZM6.5075 10.5H7.2575C7.2575 10.0858 6.92171 9.75 6.5075 9.75V10.5ZM6.5075 10.5075V11.2575C6.92171 11.2575 7.2575 10.9217 7.2575 10.5075H6.5075ZM6.5 10.5075H5.75C5.75 10.9217 6.08579 11.2575 6.5 11.2575V10.5075ZM2.75 18C2.33579 18 2 18.3358 2 18.75C2 19.1642 2.33579 19.5 2.75 19.5V18ZM18.5468 20.8512L18.7437 20.1276L18.5468 20.8512ZM20.75 18.75C20.75 18.3358 20.4142 18 20 18C19.5858 18 19.25 18.3358 19.25 18.75H20.75ZM5 4.5C5 4.08579 4.66421 3.75 4.25 3.75C3.83579 3.75 3.5 4.08579 3.5 4.5H5ZM22.25 6.75C22.6642 6.75 23 6.41421 23 6C23 5.58579 22.6642 5.25 22.25 5.25V6.75ZM22.25 15.75C22.6642 15.75 23 15.4142 23 15C23 14.5858 22.6642 14.25 22.25 14.25V15.75ZM21.5 5.625V15.375H23V5.625H21.5ZM3.875 15.75C3.66789 15.75 3.5 15.5821 3.5 15.375H2C2 16.4105 2.83947 17.25 3.875 17.25V15.75ZM21.5 15.375C21.5 15.5821 21.3321 15.75 21.125 15.75V17.25C22.1605 17.25 23 16.4105 23 15.375H21.5ZM21.125 5.25C21.3321 5.25 21.5 5.41789 21.5 5.625H23C23 4.58947 22.1605 3.75 21.125 3.75V5.25ZM3.875 3.75C2.83947 3.75 2 4.58947 2 5.625H3.5C3.5 5.41789 3.66789 5.25 3.875 5.25V3.75ZM14.75 10.5C14.75 11.7426 13.7426 12.75 12.5 12.75V14.25C14.5711 14.25 16.25 12.5711 16.25 10.5H14.75ZM12.5 12.75C11.2574 12.75 10.25 11.7426 10.25 10.5H8.75C8.75 12.5711 10.4289 14.25 12.5 14.25V12.75ZM10.25 10.5C10.25 9.25736 11.2574 8.25 12.5 8.25V6.75C10.4289 6.75 8.75 8.42893 8.75 10.5H10.25ZM12.5 8.25C13.7426 8.25 14.75 9.25736 14.75 10.5H16.25C16.25 8.42893 14.5711 6.75 12.5 6.75V8.25ZM18.5 11.25H18.5075V9.75H18.5V11.25ZM17.7575 10.5V10.5075H19.2575V10.5H17.7575ZM18.5075 9.7575H18.5V11.2575H18.5075V9.7575ZM19.25 10.5075V10.5H17.75V10.5075H19.25ZM6.5 11.25H6.5075V9.75H6.5V11.25ZM5.7575 10.5V10.5075H7.2575V10.5H5.7575ZM6.5075 9.7575H6.5V11.2575H6.5075V9.7575ZM7.25 10.5075V10.5H5.75V10.5075H7.25ZM2.75 19.5C8.15005 19.5 13.3802 20.2222 18.3498 21.5749L18.7437 20.1276C13.647 18.7402 8.28434 18 2.75 18V19.5ZM20.75 19.7551V18.75H19.25V19.7551H20.75ZM18.3498 21.5749C19.5404 21.899 20.75 21.0168 20.75 19.7551H19.25C19.25 20.0004 19.0072 20.1993 18.7437 20.1276L18.3498 21.5749ZM21.5 15.75V14.25C20.6716 14.25 20 14.9216 20 15.75H21.5ZM3.5 15.75H5C5 14.9216 4.32843 14.25 3.5 14.25V15.75ZM3.5 5.25V5.25V6.75C4.32843 6.75 5 6.07843 5 5.25H3.5ZM21.5 5.25V5.25H20C20 6.07843 20.6716 6.75 21.5 6.75V5.25ZM5 5.25V4.5H3.5V5.25H5ZM3.5 5.25H2.75V6.75H3.5V5.25ZM3.5 6V5.625H2V6H3.5ZM21.5 5.25V4.5H20V5.25H21.5ZM3.875 5.25H20.75V3.75H3.875V5.25ZM20.75 5.25H21.125V3.75H20.75V5.25ZM21.5 6.75H22.25V5.25H21.5V6.75ZM21.5 15.75H22.25V14.25H21.5V15.75ZM20 15.75V16.5H21.5V15.75H20ZM21.125 15.75H20.75V17.25H21.125V15.75ZM20.75 15.75H4.25V17.25H20.75V15.75ZM4.25 15.75H3.875V17.25H4.25V15.75ZM3.5 15.75V16.5H5V15.75H3.5ZM3.5 15.375V15H2V15.375H3.5ZM3.5 15V6H2V15H3.5ZM3.5 14.25H2.75V15.75H3.5V14.25Z" fill="#B1B5C4"/>
</svg>
