<svg width="24" height="24" viewBox="0 0 25 24" fill="none" xmlns="http://www.w3.org/2000/svg">
<path d="M9.5 11.25C9.08579 11.25 8.75 11.5858 8.75 12C8.75 12.4142 9.08579 12.75 9.5 12.75V11.25ZM13.25 12.75C13.6642 12.75 14 12.4142 14 12C14 11.5858 13.6642 11.25 13.25 11.25V12.75ZM9.5 14.25C9.08579 14.25 8.75 14.5858 8.75 15C8.75 15.4142 9.08579 15.75 9.5 15.75V14.25ZM13.25 15.75C13.6642 15.75 14 15.4142 14 15C14 14.5858 13.6642 14.25 13.25 14.25V15.75ZM9.5 17.25C9.08579 17.25 8.75 17.5858 8.75 18C8.75 18.4142 9.08579 18.75 9.5 18.75V17.25ZM13.25 18.75C13.6642 18.75 14 18.4142 14 18C14 17.5858 13.6642 17.25 13.25 17.25V18.75ZM7.25 12V11.25C6.83579 11.25 6.5 11.5858 6.5 12H7.25ZM7.2575 12H8.0075C8.0075 11.5858 7.67171 11.25 7.2575 11.25V12ZM7.2575 12.0075V12.7575C7.67171 12.7575 8.0075 12.4217 8.0075 12.0075H7.2575ZM7.25 12.0075H6.5C6.5 12.4217 6.83579 12.7575 7.25 12.7575V12.0075ZM7.25 15V14.25C6.83579 14.25 6.5 14.5858 6.5 15H7.25ZM7.2575 15H8.0075C8.0075 14.5858 7.67171 14.25 7.2575 14.25V15ZM7.2575 15.0075V15.7575C7.67171 15.7575 8.0075 15.4217 8.0075 15.0075H7.2575ZM7.25 15.0075H6.5C6.5 15.4217 6.83579 15.7575 7.25 15.7575V15.0075ZM7.25 18V17.25C6.83579 17.25 6.5 17.5858 6.5 18H7.25ZM7.2575 18H8.0075C8.0075 17.5858 7.67171 17.25 7.2575 17.25V18ZM7.2575 18.0075V18.7575C7.67171 18.7575 8.0075 18.4217 8.0075 18.0075H7.2575ZM7.25 18.0075H6.5C6.5 18.4217 6.83579 18.7575 7.25 18.7575V18.0075ZM10.7261 3.91627L10.7881 4.6637L10.7261 3.91627ZM18.7739 3.91627L18.7119 4.6637L18.7739 3.91627ZM16.25 18C15.8358 18 15.5 18.3358 15.5 18.75C15.5 19.1642 15.8358 19.5 16.25 19.5V18ZM11.8495 3.83619L12.5662 4.05717L11.8495 3.83619ZM9.5 12.75H13.25V11.25H9.5V12.75ZM9.5 15.75H13.25V14.25H9.5V15.75ZM9.5 18.75H13.25V17.25H9.5V18.75ZM7.25 12.75H7.2575V11.25H7.25V12.75ZM6.5075 12V12.0075H8.0075V12H6.5075ZM7.2575 11.2575H7.25V12.7575H7.2575V11.2575ZM8 12.0075V12H6.5V12.0075H8ZM7.25 15.75H7.2575V14.25H7.25V15.75ZM6.5075 15V15.0075H8.0075V15H6.5075ZM7.2575 14.2575H7.25V15.7575H7.2575V14.2575ZM8 15.0075V15H6.5V15.0075H8ZM7.25 18.75H7.2575V17.25H7.25V18.75ZM6.5075 18V18.0075H8.0075V18H6.5075ZM7.2575 17.2575H7.25V18.7575H7.2575V17.2575ZM8 18.0075V18H6.5V18.0075H8ZM20 6.10822V16.5H21.5V6.10822H20ZM9.5 6.10822C9.5 5.34365 10.0652 4.7237 10.7881 4.6637L10.664 3.16884C9.12475 3.2966 8 4.60283 8 6.10822H9.5ZM20 16.5C20 17.3284 19.3284 18 18.5 18V19.5C20.1569 19.5 21.5 18.1569 21.5 16.5H20ZM21.5 6.10822C21.5 4.60282 20.3752 3.2966 18.8359 3.16884L18.7119 4.6637C19.4348 4.7237 20 5.34365 20 6.10822H21.5ZM18.5 18H16.25V19.5H18.5V18ZM15.125 21H5.375V22.5H15.125V21ZM5 20.625V9.375H3.5V20.625H5ZM15.5 9.375V20.625H17V9.375H15.5ZM15.125 9C15.3321 9 15.5 9.16789 15.5 9.375H17C17 8.33947 16.1605 7.5 15.125 7.5V9ZM5.375 21C5.16789 21 5 20.8321 5 20.625H3.5C3.5 21.6605 4.33947 22.5 5.375 22.5V21ZM15.125 22.5C16.1605 22.5 17 21.6605 17 20.625H15.5C15.5 20.8321 15.3321 21 15.125 21V22.5ZM5 9.375C5 9.16789 5.16789 9 5.375 9V7.5C4.33947 7.5 3.5 8.33947 3.5 9.375H5ZM14 3H15.5V1.5H14V3ZM17 4.5H12.5V6H17V4.5ZM12.5 4.5C12.5 4.34469 12.5234 4.19622 12.5662 4.05717L11.1328 3.61521C11.0463 3.89582 11 4.19319 11 4.5H12.5ZM12.5662 4.05717C12.7552 3.44413 13.3267 3 14 3V1.5C12.6501 1.5 11.5103 2.39101 11.1328 3.61521L12.5662 4.05717ZM10.7881 4.6637C11.1556 4.6332 11.5243 4.60691 11.8941 4.58486L11.8049 3.08752C11.4234 3.11026 11.0431 3.13738 10.664 3.16884L10.7881 4.6637ZM15.5 3C16.1733 3 16.7448 3.44413 16.9338 4.05717L18.3672 3.61521C17.9897 2.39101 16.8499 1.5 15.5 1.5V3ZM16.9338 4.05717C16.9766 4.19622 17 4.34469 17 4.5H18.5C18.5 4.1932 18.4537 3.89582 18.3672 3.61521L16.9338 4.05717ZM17.6059 4.58486C17.9757 4.60691 18.3444 4.6332 18.7119 4.6637L18.8359 3.16884C18.4569 3.13738 18.0766 3.11026 17.6951 3.08752L17.6059 4.58486ZM5.375 9H8.75V7.5H5.375V9ZM8.75 9H15.125V7.5H8.75V9ZM9.5 8.25V6.10822H8V8.25H9.5ZM12.5 4.5H11C11 5.32843 11.6716 6 12.5 6V4.5ZM17 4.5V6C17.8284 6 18.5 5.32843 18.5 4.5H17Z" fill="#B1B5C4"/>
</svg>
