<svg width="24" height="24" viewBox="0 0 24 24" fill="none" xmlns="http://www.w3.org/2000/svg">
<path d="M1.71967 11.4695C1.42678 11.7624 1.42678 12.2373 1.71967 12.5302C2.01256 12.8231 2.48744 12.8231 2.78033 12.5302L1.71967 11.4695ZM11.2045 3.04533L11.7348 3.57566V3.57566L11.2045 3.04533ZM12.7955 3.04532L13.3258 2.51499L13.3258 2.51499L12.7955 3.04532ZM21.2197 12.5302C21.5126 12.8231 21.9874 12.8231 22.2803 12.5302C22.5732 12.2373 22.5732 11.7624 22.2803 11.4695L21.2197 12.5302ZM5.25 9.74983C5.25 9.33562 4.91421 8.99983 4.5 8.99983C4.08579 8.99983 3.75 9.33562 3.75 9.74983H5.25ZM20.25 9.74983C20.25 9.33562 19.9142 8.99983 19.5 8.99983C19.0858 8.99983 18.75 9.33562 18.75 9.74983H20.25ZM9.75 20.9998V21.7498C10.1642 21.7498 10.5 21.414 10.5 20.9998H9.75ZM14.25 20.9998H13.5C13.5 21.414 13.8358 21.7498 14.25 21.7498V20.9998ZM8.25 20.2498C7.83579 20.2498 7.5 20.5856 7.5 20.9998C7.5 21.414 7.83579 21.7498 8.25 21.7498V20.2498ZM16.5 21.7498C16.9142 21.7498 17.25 21.414 17.25 20.9998C17.25 20.5856 16.9142 20.2498 16.5 20.2498V21.7498ZM2.78033 12.5302L11.7348 3.57566L10.6742 2.515L1.71967 11.4695L2.78033 12.5302ZM12.2652 3.57566L21.2197 12.5302L22.2803 11.4695L13.3258 2.51499L12.2652 3.57566ZM11.7348 3.57566C11.8813 3.42921 12.1187 3.42921 12.2652 3.57566L13.3258 2.51499C12.5936 1.78276 11.4064 1.78276 10.6742 2.515L11.7348 3.57566ZM3.75 9.74983V19.8748H5.25V9.74983H3.75ZM20.25 19.8748V9.74983H18.75V19.8748H20.25ZM5.625 21.7498H9.75V20.2498H5.625V21.7498ZM14.25 21.7498H18.375V20.2498H14.25V21.7498ZM10.5 20.9998V16.1248H9V20.9998H10.5ZM10.875 15.7498H13.125V14.2498H10.875V15.7498ZM13.5 16.1248V20.9998H15V16.1248H13.5ZM13.125 15.7498C13.3321 15.7498 13.5 15.9177 13.5 16.1248H15C15 15.0893 14.1605 14.2498 13.125 14.2498V15.7498ZM18.75 19.8748C18.75 20.0819 18.5821 20.2498 18.375 20.2498V21.7498C19.4105 21.7498 20.25 20.9104 20.25 19.8748H18.75ZM10.5 16.1248C10.5 15.9177 10.6679 15.7498 10.875 15.7498V14.2498C9.83947 14.2498 9 15.0893 9 16.1248H10.5ZM3.75 19.8748C3.75 20.9104 4.58947 21.7498 5.625 21.7498V20.2498C5.41789 20.2498 5.25 20.0819 5.25 19.8748H3.75ZM8.25 21.7498H16.5V20.2498H8.25V21.7498Z" fill="#B1B5C4"/>
</svg>
