<svg width="16" height="16" viewBox="0 0 16 16" fill="none" xmlns="http://www.w3.org/2000/svg">
<path fill-rule="evenodd" clip-rule="evenodd" d="M4.18414 12.6323C3.94527 12.4026 3.93782 12.0228 4.1675 11.7839L7.5675 8.18394C7.68062 8.06629 7.83679 7.9998 8 7.9998C8.16321 7.9998 8.31938 8.06629 8.4325 8.18394L11.8325 11.7839C12.0622 12.0228 12.0547 12.4026 11.8159 12.6323C11.577 12.862 11.1972 12.8545 10.9675 12.6157L8 9.46547L5.0325 12.6157C4.80282 12.8545 4.423 12.862 4.18414 12.6323ZM4.18414 7.8323C3.94527 7.60263 3.93782 7.2228 4.1675 6.98394L7.5675 3.38394C7.68062 3.26629 7.83679 3.1998 8 3.1998C8.16321 3.1998 8.31938 3.26629 8.4325 3.38394L11.8325 6.98394C12.0622 7.2228 12.0547 7.60263 11.8159 7.8323C11.577 8.06198 11.1972 8.05453 10.9675 7.81567L8 4.66547L5.0325 7.81567C4.80282 8.05453 4.423 8.06198 4.18414 7.8323Z" fill="#B1B5C4"/>
</svg>
