<svg width="32" height="32" viewBox="0 0 32 32" fill="none" xmlns="http://www.w3.org/2000/svg">
<rect width="31.3043" height="31.3043" transform="translate(0.347656 0.347656)" fill="#3888FE"/>
<path fill-rule="evenodd" clip-rule="evenodd" d="M15.9993 26.9565C15.351 26.9565 14.8254 26.431 14.8254 25.7826L14.8254 9.13198L8.62812 15.6398C8.17876 16.1071 7.43562 16.1217 6.96828 15.6723C6.50094 15.2229 6.48637 14.4798 6.93573 14.0125L15.1531 5.40376C15.3744 5.17358 15.68 5.0435 15.9993 5.0435C16.3186 5.0435 16.6242 5.17358 16.8455 5.40376L25.0629 14.0125C25.5123 14.4798 25.4977 15.2229 25.0304 15.6723C24.563 16.1217 23.8199 16.1071 23.3705 15.6398L17.1732 9.13198L17.1732 25.7826C17.1732 26.431 16.6477 26.9565 15.9993 26.9565Z" fill="#FCFCFD"/>
</svg>
