<svg width="24" height="24" viewBox="0 0 24 24" fill="none" xmlns="http://www.w3.org/2000/svg">
<path d="M22.0647 11.9985L22.7836 12.2124C22.8251 12.0727 22.8251 11.9241 22.7835 11.7845L22.0647 11.9985ZM1.93433 12.0015L1.21545 11.7877C1.17393 11.9273 1.17395 12.0759 1.21552 12.2155L1.93433 12.0015ZM4.55251 8.70695C4.82002 8.39071 4.78052 7.91748 4.46428 7.64996C4.14804 7.38245 3.67481 7.42195 3.40729 7.73819L4.55251 8.70695ZM15.0663 19.8266C15.4649 19.7139 15.6966 19.2994 15.5839 18.9008C15.4712 18.5022 15.0567 18.2705 14.6581 18.3832L15.0663 19.8266ZM3.5303 2.46967C3.23741 2.17678 2.76253 2.17678 2.46964 2.46967C2.17675 2.76256 2.17675 3.23744 2.46964 3.53033L3.5303 2.46967ZM20.4696 21.5303C20.7625 21.8232 21.2374 21.8232 21.5303 21.5303C21.8232 21.2374 21.8232 20.7626 21.5303 20.4697L20.4696 21.5303ZM14.1213 14.1213L13.591 14.6517L14.1213 14.1213ZM12 9.75C13.2426 9.75 14.25 10.7574 14.25 12H15.75C15.75 9.92893 14.071 8.25 12 8.25V9.75ZM11.9999 5.25C16.4151 5.25 20.1467 8.18531 21.3459 12.2126L22.7835 11.7845C21.4001 7.13879 17.0968 3.75 11.9999 3.75V5.25ZM11.9991 18.75C7.5839 18.75 3.85235 15.8147 2.65313 11.7874L1.21552 12.2155C2.59889 16.8612 6.90226 20.25 11.9991 20.25V18.75ZM2.6532 12.2153C3.04111 10.9112 3.69492 9.72075 4.55251 8.70695L3.40729 7.73819C2.41867 8.9069 1.66367 10.2808 1.21545 11.7877L2.6532 12.2153ZM14.6581 18.3832C13.8137 18.622 12.922 18.75 11.9991 18.75V20.25C13.0613 20.25 14.0904 20.1026 15.0663 19.8266L14.6581 18.3832ZM6.64044 6.85377C8.17794 5.84003 10.0189 5.25 11.9999 5.25V3.75C9.71646 3.75 7.58977 4.43113 5.81475 5.60148L6.64044 6.85377ZM2.46964 3.53033L5.69727 6.75796L6.75793 5.6973L3.5303 2.46967L2.46964 3.53033ZM17.2416 18.3023L20.4696 21.5303L21.5303 20.4697L18.3023 17.2417L17.2416 18.3023ZM21.3458 11.7847C20.6852 14.0056 19.2532 15.8968 17.3591 17.1459L18.1849 18.3981C20.3679 16.9586 22.0204 14.7781 22.7836 12.2124L21.3458 11.7847ZM13.591 14.6517L17.2416 18.3023L18.3023 17.2417L14.6516 13.591L13.591 14.6517ZM14.25 12C14.25 12.6215 13.999 13.183 13.591 13.591L14.6516 14.6517C15.3294 13.9739 15.75 13.0353 15.75 12H14.25ZM5.69727 6.75796L9.34832 10.409L10.409 9.34835L6.75793 5.6973L5.69727 6.75796ZM9.34832 10.409L13.591 14.6517L14.6516 13.591L10.409 9.34835L9.34832 10.409ZM10.409 10.409C10.817 10.001 11.3784 9.75 12 9.75V8.25C10.9646 8.25 10.0261 8.67055 9.34832 9.34835L10.409 10.409Z" fill="#B1B5C4"/>
</svg>
