<svg width="64" height="64" viewBox="0 0 24 24" fill="none" xmlns="http://www.w3.org/2000/svg">
<path d="M7.80002 10.7999C7.80002 9.14305 9.14317 7.7999 10.8 7.7999C12.4569 7.7999 13.8 9.14305 13.8 10.7999C13.8 11.6286 13.4652 12.3773 12.9213 12.9212C12.3775 13.4651 11.6287 13.7999 10.8 13.7999C9.14317 13.7999 7.80002 12.4568 7.80002 10.7999Z" fill="#B1B5C4"/>
<path fill-rule="evenodd" clip-rule="evenodd" d="M12 21.5999C17.302 21.5999 21.6 17.3018 21.6 11.9999C21.6 6.69797 17.302 2.3999 12 2.3999C6.69809 2.3999 2.40002 6.69797 2.40002 11.9999C2.40002 17.3018 6.69809 21.5999 12 21.5999ZM10.8 5.9999C8.14906 5.9999 6.00002 8.14894 6.00002 10.7999C6.00002 13.4509 8.14906 15.5999 10.8 15.5999C11.7999 15.5999 12.7291 15.2935 13.4978 14.7705L15.2636 16.5363C15.6151 16.8878 16.1849 16.8878 16.5364 16.5363C16.8879 16.1848 16.8879 15.615 16.5364 15.2635L14.7706 13.4977C15.2936 12.729 15.6 11.7997 15.6 10.7999C15.6 8.14894 13.451 5.9999 10.8 5.9999Z" fill="#B1B5C4"/>
</svg>
